/* XPM */
static char *bitcoin80[] = {
/* columns rows colors chars-per-pixel */
"80 86 105 2 ",
"   c #0ABEF5",
".  c #0BBFF5",
"X  c #09BDF6",
"o  c #09BDF7",
"O  c #09BEF7",
"+  c #0ABEF6",
"@  c #0ABFF6",
"#  c #0ABEF7",
"$  c #0BBFF7",
"%  c #02B5FB",
"&  c #03B7FA",
"*  c #04B7FB",
"=  c #01B5FC",
"-  c #01B5FD",
";  c #02B5FD",
":  c #02B6FC",
">  c #03B6FC",
",  c #03B7FC",
"<  c #05B9F9",
"1  c #05BAF9",
"2  c #06BAF9",
"3  c #06BBF9",
"4  c #07BBF9",
"5  c #04B8FA",
"6  c #04B8FB",
"7  c #05B9FB",
"8  c #06BBFA",
"9  c #07BCF9",
"0  c #08BCF8",
"q  c #08BDF8",
"w  c #08BCF9",
"e  c #16CBED",
"r  c #17CBED",
"t  c #15CAEF",
"y  c #16CAEE",
"u  c #16CBEE",
"i  c #17CBEE",
"p  c #17CCED",
"a  c #17CCEE",
"s  c #1ACEEB",
"d  c #1ACFEB",
"f  c #1BCFEB",
"g  c #18CDEC",
"h  c #18CCED",
"j  c #19CEEC",
"k  c #19CEED",
"l  c #1ACFEC",
"z  c #1BCFEC",
"x  c #1ACEED",
"c  c #1BD0EB",
"v  c #1CD1E9",
"b  c #1DD1E9",
"n  c #1DD2E9",
"m  c #1ED2E8",
"M  c #1ED3E8",
"N  c #1FD3E8",
"B  c #1ED2E9",
"V  c #1ED3E9",
"C  c #1FD3E9",
"Z  c #1CD0EA",
"A  c #1DD1EA",
"S  c #1DD2EA",
"D  c #1ED2EA",
"F  c #1FD4E8",
"G  c #0EC3F3",
"H  c #0FC3F3",
"J  c #0FC4F3",
"K  c #0BC0F6",
"L  c #0DC1F4",
"P  c #0CC0F5",
"I  c #0DC2F4",
"U  c #0EC2F4",
"Y  c #0EC3F4",
"T  c #0CC0F6",
"R  c #0CC1F6",
"E  c #10C4F1",
"W  c #12C6F0",
"Q  c #13C7F0",
"!  c #10C4F2",
"~  c #10C5F2",
"^  c #12C7F2",
"/  c #13C8F0",
"(  c #14C8F0",
")  c #14C9F0",
"_  c #22D6E5",
"`  c #22D7E5",
"'  c #23D7E5",
"]  c #20D5E6",
"[  c #20D5E7",
"{  c #21D5E7",
"}  c #21D6E6",
"|  c #22D6E6",
" . c #23D7E6",
".. c #23D7E7",
"X. c #23D8E5",
"o. c #23D8E6",
"O. c #24D9E4",
"+. c #25D9E4",
"@. c #24D8E5",
"#. c #26D9E4",
"$. c #24DAE4",
"%. c #25DAE4",
"&. c #24D8E6",
"*. c #21D6E8",
"=. c None",
/* pixels */
"=.=.=.=.=.=.=.=.=.=.=.=.=.=.=.=.=.=.=.=.=.=.=.=.=.=.=.=.=.=.=.=.=.=.=.=.=.=.=.=.=.=.=.=.=.=.=.=.=.=.=.=.=.=.=.=.=.=.=.=.=.=.=.=.=.=.=.=.=.=.=.=.=.=.=.=.=.=.=.=.",
"=.=.=.=.=.=.=.=.=.=.=.=.=.=.=.=.=.=.=.=.=.=.=.=.=.=.=.=.=.=.=.=.=.=.=.=.=.=.=.=.=.=.=.=.=.=.=.=.=.=.=.=.=.=.=.=.=.=.=.=.=.=.=.=.=.=.=.=.=.=.=.=.=.=.=.=.=.=.=.=.",
"=.=.=.=.=.=.=.=.=.=., =.=.=.=.=.=.=.=.0 =.=.=.=.=.=.=.=.=.=.=.=.=.=.=.=.=.=.=.=.=.=.=.=.=.=.=.=.=.=.=.=.=.=.=.=.=.=.=.l =.=.=.=.=.=.D ] =.=.=.=.=.=.=.=.=.=.=.=.",
"=.=.=.; ; ; ; = ; 6 = = ; ; ; 6 =.; 8 ; 8 7 7 6 7 =.=.=.=.=.=.=.=.=.=.=.=.=.=.=.=.=.=.=.=.=.=.=.=.=.=.=.=.=.=.=.=.=.l l D l c D D ] m m D ] ] ] &.] ] &.X.X.&.=.",
"=.=.=.=.; ; ; 7 = = 6 ; 6 ; 6 =.=.=.6 7 =.8 7 7 =.=.=.=.=.=.=.=.=.=.=.=.=.=.=.=.=.=.=.=.=.=.=.=.=.=.=.=.=.=.=.=.=.=.l =.=.=.z D [ D m m [ ] ] ] ] &.&.' ' ' *.=.",
"=.=.=.=.= ; = = = 6 ; = ; 6 ; =.=.=.=.8 7 =.7 =.=.=.0 =.=.=.=.=.=.=.=.=.=.=.=.=.=.=.=.=.=.=.=.=.=.=.=.=.=.=.=.l l s =.=.=.D D *.f D m m D ] *.&.@.] ] O.] ' =.=.",
"=.=.=.=.=.; 6 ; = = ; = = ; 6 =.=.=.=.=.6 0 o 7 =.0 =.=.=.=.=.=.=.=.=.=.=.=.=.=.=.=.=.=.=.=.=.=.=.=.=.=.=.=.a s l l =.D Z D D m f [ ] D D [ *.] ] ] &.' ] @.=.=.",
"=.=.=.=.=.=.7 , 6 = 6 = = = ; 7 ; ; , 0 =.7   1 o 0 =.=.=.=.=.=.=.=.=.=.=.=.=.=.=.=.=.=.=.=.=.=.=.=.=.=.=.=.i l l s Z s D s D m D [ ] [ ] D @.] &.%.O.] ] =.=.=.",
"=.=.=.=.=.=.=.; = 6 = = = ; 6 =.=.=.=.0 6 7 1 o 7 o 7 K 0 =.=.=.=.=.=.=.=.=.=.=.=.=.=.=.=.=.=.=.=.=.=.=.=.i =.l l z D l s Z m m m M m *.*.M ] ] ' &.@.*.=.=.=.=.",
"=.=.=.=.=.=.=.; = = 6 ; = = , =.=.=.=.=.=.* * 7 7 8 0 0 R =.=.=.=.=.=.=.=.=.=.=.=.=.=.=.=.=.=.=.=.=.=.=.=.l i s f f f f D Z D M D ] ] ] *.] ] ] ' ] &.=.=.=.=.=.",
"=.=.=.=.=.=.=.=.7 = = = 7 = , =.=.=.=.=.7 o 7 0 1 o 0 0 R =.=.=.=.=.=.=.=.=.=.=.=.=.=.=.=.=.=.=.=.=.=.=.l i e s s f f f Z m ] m m m D D ] ] @.] ] ] *.=.=.=.=.=.",
"=.=.=.=.=.=.=.=.7 = = 6 = 7 7 =.=.7 7 o 7 7 1 1 0 o o o 7 R R =.=.=.=.=.=.=.=.=.=.=.=.=.=.=.=.=.=.=.=.t i i e s s s s f Z v m D m m ] ] ] *.*.] ' %.=.=.=.=.=.=.",
"=.=.=.=.=.=.=.=.=.; = 7 * = = 7 1 7 7 7 6 7 0 o 0 o o K 0 K o 0 =.=.=.=.=.=.=.=.=.=.=.=.=.=.=.=.=.=./ i e a Z s a s s s m M D m D ] D ] @.] ] *.' &.=.=.=.=.=.=.",
"=.=.=.=.=.=.=.=.=.=.= ; 7 ; 7 = 7 7 = 7 0 7 8 8 0 1 0 o 0 o o K =.=.=.=.=.=.=.=.=.=.=.=.=.=.=.=.=.=.i l s e s i Z s Z Z D v Z m D [ ] [ [ *.] @.] =.=.=.=.=.=.=.",
"=.=.=.=.=.=.=.=.=.=.7 ; = ; = = = = 6 7 1 6 0 7 8 0 K o o o R K R =.=.=.=.=.=.=.=.=.=.=.=.=.=.=.=.i l i a a a Z Z a a Z D M M D D D [ D @.D ] &.=.=.=.=.=.=.=.=.",
"=.=.=.=.=.=.=.=.=.=.=.7 > > = 7 7 7 1 1 1 6 8 7 0 8 K 0 K o R Y K =.=.=.=.=.=.=.=.=.=.=.=.=.=.=.i i i i a e Z s s Z c s Z m m D D ] ] *.=...=.=.=.=.=.=.=.=.=.=.",
"=.=.=.=.=.=.=.=.=.=.=.=., ; = 7 8 7 1 1 X o o 7 6 0 0 w =.=.. 0 R =.=.=.=.=.=.=.=.=.=.=.=.=.=.=.i t e e e e s l Z s s Z v m D D D D ] ..D @.=.=.=.=.=.=.=.=.=.=.",
"=.=.=.=.=.=.=.=.=.=.=.=.=., ; 7 0 0 7 1 7 1 o o 0 0 =.=.=.R R 0 R R R =.=.=.=.=.=.=.=.=.=.=.=./ i i i s i i s s Z Z Z D D m m v [ D ] [ [ ] =.=.=.=.=.=.=.=.=.=.",
"=.=.=.=.=.=.=.=.=.=.=.=.=.; 7 = 6 1   1 6 7 7 7 0 0 0 0 0 K K R G R W =.=.=.=.=.=.=.=.=.=.=.=.i e i e s i s Z s l l l s Z m D m [ *.] *.[ =.=.=.=.=.=.=.=.=.=.=.",
"=.=.=.=.=.=.=.=.=.=.=.=.=.=.7 = = 6 1 1 6 0 8 =.=.=.=.=.=.=.=.R G G R R =.=.=.=.=.=.=.=.=.=.i i s s i i i i l s l D s D Z D m D f &.] *.D =.=.=.=.=.=.=.=.=.=.=.",
"=.=.=.=.=.=.=.=.=.=.=.=.=.=.= = = 6 6 7 1 0 =.=.=.=.=.=.=.=.=.. o ! G R =.=.=.=.=.=.=.=.=.a i / i e i i l i i s a l Z Z D D D m D D m ] =.=.=.=.=.=.=.=.=.=.=.=.",
"=.=.=.=.=.=.=.=.=.=.=.=.=.=.=.; 1 < < 7 = o 0 =.=.=.=.=.=.=.o R . o R ! R =.=.=.=.=.=.=.=.W i i s e i l i s l s s s Z D D =.=.=.=.D D ] =.=.=.=.=.=.=.=.=.=.=.=.",
"=.=.=.=.=.=.=.=.=.=.=.=.=.=.=.8 1 7 7 0 0 8 8 0 =.=.=.=.R R R o R R G ! R W =.=.=.=.=.=.i W i l / i l =.=.l l s s m s l D =.=.D [ D =.=.=.=.=.=.=.=.=.=.=.=.=.=.",
"=.=.=.=.=.=.=.=.=.=.=.=.=.=.=.=.=.=.; =.=.8 =.=.w R R . R . ! . ! ! R ! G J =.=.=.=.=.=.i i =.=.=.l i =.=.l l s s m Z D D D M M =.=.=.=.=.=.=.=.=.=.=.=.=.=.=.=.",
"=.=.=.=.=.=.=.=.=.=.=.=.=.=.=.=.=.=.7 =.=.=.0 0 8 0 0 R R R . ! R G R ! ! ! W =.=.=.=.=.=.=.=.=.=.=.i =.=.l s f s Z s M Z D =.=.=.=.=.=.=.=.=.=.=.=.=.=.=.=.=.=.",
"=.=.=.=.=.=.=.=.=.=.=.=.=.=.=.=.=.=.; =.=.8 o 0 0 K o K 0 G R R ! R R ! $ R W W =.=.=.=.=.=.=.=.=.=.l i l l l s a Z Z D M =.=.=.=.=.=.=.=.=.=.=.=.=.=.=.=.=.=.=.",
"=.=.=.=.=.=.=.=.=.=.=.=.=.=.=.=.=.=.8 =.8 o 0 8 0 0 K o G . o R . W =.R W W R ) =.=.i ) i l W ) a / i a i l l s s s D D M ] =.=.=.=.=.=.=.=.=.=.=.=.=.=.=.=.=.=.",
"=.=.=.=.=.=.=.=.=.=.=.=.=.=.=.=.=.=.=.=.8 8 o 8 0 0 o K o K o ! =.R ! R =.=.) W ) =.=.=.=.=.=.) l l i s s l l l s s M M D M M =.=.=.=.=.=.=.=.=.=.=.=.=.=.=.=.=.",
"=.=.=.=.=.=.=.=.=.=.=.=.=.=.=.=.=.=.=.=.8 8 8 0 0 0 0 0 R R o R R R =.=.=.=.=.^ =.=.=.=.=.=.=.=.W i i l s l s D D l D D =.*.D =.=.=.=.=.=.=.=.=.=.=.=.=.=.=.=.=.",
"=.=.=.=.=.=.=.=.=.=.=.=.=.=.=.=.=.=.=.=.0 0 0 8 K 0 =.=.=.G o R G R =.=.=.=.=.R / =.=.=.=.=.l ) =.=.=.=.D l s s l D =.=.D *.=.=.=.=.=.=.=.=.=.=.=.=.=.=.=.=.=.=.",
"=.=.=.=.=.=.=.=.=.=.=.=.=.=.=.=.=.=.=.=.=.=.=.=.=.R 8 K R o R R R G R W ! R / =.^ =.=./ l W =.=.=.=.=.=.a =.D s D D =.l M D =.=.=.=.=.=.=.=.=.=.=.=.=.=.=.=.=.=.",
"=.=.=.=.=.=.=.=.=.=.=.=.=.=.=.=.=.=.=.=.=.=.=.=.=.0 o R =.=.R =.=.=.=.=.=.! R W W W W =.=.=.=.=.=.=.=.=.l =.=.s m D D M =.=.=.=.=.=.=.=.=.=.=.=.=.=.=.=.=.=.=.=.",
"=.=.=.=.=.=.=.=.=.=.=.=.=.=.=.=.=.=.=.=.=.=.=.0 0 =.0 R =.=.! =.=.=.=.=.=.=.R W W Y ) =.=.=.=.=.=.=.=.=.l =.=.l l s D =.=.=.=.=.=.=.=.=.=.=.=.=.=.=.=.=.=.=.=.=.",
"=.=.=.=.=.=.=.=.=.=.=.=.=.=.=.=.=.=.=.=.=.=.=.=.=.=.R $ =.R . =.=.=.=.=.! W R W / W ) i =.=.=.=.=.=.=.=.l l l D m D D =.=.=.=.=.=.=.=.=.=.=.=.=.=.=.=.=.=.=.=.=.",
"=.=.=.=.=.=.=.=.=.=.=.=.=.=.=.=.=.=.=.=.=.=.=.=.=.=.=.$ R . =.=.=.=.! R =.=.W W Y / W =.a l =.=.=.=.=.l s Z a D s Z D =.=.=.=.=.=.=.=.=.=.=.=.=.=.=.=.=.=.=.=.=.",
"=.=.=.=.=.=.=.=.=.=.=.=.=.=.=.=.=.=.=.=.=.=.=.=.=.=.$ ! . . R . R R =.=.=.=.) ) =./ / =.=.=.i l =.l l l s s s c s Z =.=.=.=.=.=.=.=.=.=.=.=.=.=.=.=.=.=.=.=.=.=.",
"=.=.=.=.=.=.=.=.=.=.=.=.=.=.=.=.=.=.=.=.=.=.=.=.0 o o R . . G ! R W R =.=.=.R W =./ ) / ) W W i l l s s a s s Z s l =.=.=.=.=.=.=.=.=.=.=.=.=.=.=.=.=.=.=.=.=.=.",
"=.=.=.=.=.=.=.=.=.=.=.=.=.=.=.=.=.=.=.=.=.=.=.=.=.8 . R . o . R . R G R ^ W Y W J W / i a / / i i i l e s f l Z D =.=.=.=.=.=.=.=.=.=.=.=.=.=.=.=.=.=.=.=.=.=.=.",
"=.=.=.=.=.=.=.=.=.=.=.=.=.=.=.=.=.=.=.=.=.=.=.=.=.R R R R G . G R ! . G W ^ Y ) W i / ) a i t s i l i s s l l s s =.=.=.=.=.=.=.=.=.=.=.=.=.=.=.=.=.=.=.=.=.=.=.",
"=.=.=.=.=.=.=.=.=.=.=.=.=.=.=.=.=.=.=.=.=.=.=.=.=.=.=.=.R . R o ! ! R W o W Y Y W i / W i i i t i l s i l s Z l =.=.=.=.=.=.=.=.=.=.=.=.=.=.=.=.=.=.=.=.=.=.=.=.",
"=.=.=.=.=.=.=.=.=.=.=.=.=.=.=.=.=.=.=.=.=.=.=.=.=.=.=.R R R R W . R ! . W W Y W W W W / i i i i e a i a s l l =.=.=.=.=.=.=.=.=.=.=.=.=.=.=.=.=.=.=.=.=.=.=.=.=.",
"=.=.=.=.=.=.=.=.=.=.=.=.=.=.=.=.=.=.=.=.=.=.=.=.=.=.=.=.G o R ! R ! ! ! R W W W W W W a W i i i l i Z s s D l =.=.=.=.=.=.=.=.=.=.=.=.=.=.=.=.=.=.=.=.=.=.=.=.=.",
"=.=.=.=.=.=.=.=.=.=.=.=.=.=.=.=.=.=.=.=.=.=.=.=.=.=.=.=.. . R R ! ! ! ! G W W W J W W l i i ) l l s Z s Z D =.=.=.=.=.=.=.=.=.=.=.=.=.=.=.=.=.=.=.=.=.=.=.=.=.=.",
"=.=.=.=.=.=.=.=.=.=.=.=.=.=.=.=.=.=.=.=.=.=.=.=.=.=.=.=.=.R =.=.R R W R R ) R i W W W W i i i l l l a a s s =.=.=.=.=.=.=.=.=.=.=.=.=.=.=.=.=.=.=.=.=.=.=.=.=.=.",
"=.=.=.=.=.=.=.=.=.=.=.=.=.=.=.=.=.=.=.=.=.=.=.=.=.=.=.=.=.! =.=.! ! ^ R =.=.=.=.=.W W / i i i i i i l l s l l =.=.=.=.=.=.=.=.=.=.=.=.=.=.=.=.=.=.=.=.=.=.=.=.=.",
"=.=.=.=.=.=.=.=.=.=.=.=.=.=.=.=.=.=.=.=.=.=.=.=.=.=.=.=.=.. R R R =.=.^ =.=.=.=.=.i / l i a i l l i i f D l l =.=.=.=.=.=.=.=.=.=.=.=.=.=.=.=.=.=.=.=.=.=.=.=.=.",
"=.=.=.=.=.=.=.=.=.=.=.=.=.=.=.=.=.=.=.=.=.=.=.=.=.=.=.! o R ! . =.=.=.W =.=.=.=.=.i =.) W l i l l s s s c c D s =.=.=.=.=.=.=.=.=.=.=.=.=.=.=.=.=.=.=.=.=.=.=.=.",
"=.=.=.=.=.=.=.=.=.=.=.=.=.=.=.=.=.=.=.=.=.=.=.=.=.=.=.=.R R . ! =.=.=.=.R =.=.=.) =.=.) =.=.l ) l i l D s s l D D =.=.=.=.=.=.=.=.=.=.=.=.=.=.=.=.=.=.=.=.=.=.=.",
"=.=.=.=.=.=.=.=.=.=.=.=.=.=.=.=.=.=.=.=.=.=.=.=.=.=.=.=.R G R R G J =.=.R =.=.W ) =.=.i =.=.=.) l i l l Z l D c Z =.=.=.=.=.=.=.=.=.=.=.=.=.=.=.=.=.=.=.=.=.=.=.",
"=.=.=.=.=.=.=.=.=.=.=.=.=.=.=.=.=.=.=.=.=.=.=.=.=.=.=.o W R G =.=.R W J ) ^ ^ ) =.=.=.i =.=.=.a i i Z =.l D Z Z D Z =.=.=.=.=.=.=.=.=.=.=.=.=.=.=.=.=.=.=.=.=.=.",
"=.=.=.=.=.=.=.=.=.=.=.=.=.=.=.=.=.=.=.=.=.=.=.=.=.=.R R =.R R =.=.=.R J Y W ) W / ) / l l i i i i l l =.=.=.=.D s M M =.=.=.=.=.=.=.=.=.=.=.=.=.=.=.=.=.=.=.=.=.",
"=.=.=.=.=.=.=.=.=.=.=.=.=.=.=.=.=.=.=.=.=.=.0 K =.=.R =.=.=.G =.=.W W R ) W W W W W i i W i l s i l l l =.=.=.l D s D M =.=.=.=.=.=.=.=.=.=.=.=.=.=.=.=.=.=.=.=.",
"=.=.=.=.=.=.=.=.=.=.=.=.=.=.=.=.=.=.=.=.=.=.o   R R . R R . ! ! R G ! W ^ Y W ^ W =.=.) =.=.=.i l l a l s s =.D m D D ] =.=.=.=.=.=.=.=.=.=.=.=.=.=.=.=.=.=.=.=.",
"=.=.=.=.=.=.=.=.=.=.=.=.=.=.=.=.=.=.=.=.=.0 o o o o G o $ ! . ! W R W R W ) W ) =.=.=.l =.=.l i l l l l =.s D D D D D ] =.=.=.=.=.=.=.=.=.=.=.=.=.=.=.=.=.=.=.=.",
"=.=.=.=.=.=.=.=.=.=.=.=.=.=.=.=.=.=.=.=.=.8 o G R o . G $ R R R R W ) G =.=.=.W / =.=.) =.=.s i i l s s c D l s m m D s M =.=.=.=.=.=.=.=.=.=.=.=.=.=.=.=.=.=.=.",
"=.=.=.=.=.=.=.=.=.=.=.=.=.=.=.=.=.=.=.=.o 8 o o o G G . R ! G ! W G / =.=.=.=.=.i =.=.) s a i i a a s s D D D D m D D *.] D =.=.=.=.=.=.=.=.=.=.=.=.=.=.=.=.=.=.",
"=.=.=.=.=.=.=.=.=.=.=.=.=.=.=.=.=.=.=.0 K 7 o o o . ! . . R W G G =.=.=.=.=.=.=./ ) =.i s i i l z l l l c M c M m D M M M X.=.=.=.=.=.=.=.=.=.=.=.=.=.=.=.=.=.=.",
"=.=.=.=.=.=.=.=.=.=.=.=.=.=.=.=.=.=.=.o o K o G . . o G R . 0 W R W =.=.=.=.=.=.=.i ) i t i l i l l l =.c Z M Z m m D D *.M ] =.=.=.=.=.=.=.=.=.=.=.=.=.=.=.=.=.",
"=.=.=.=.=.=.=.=.=.=.=.=.=.=.=.=.=.=.7 0 1 o o 7 X o . . G . G ! ^ ^ ^ R Y =.=.=./ i i i i i e a =.l D =.=.c Z Z ] M m M *.&.] X.=.=.=.=.=.=.=.=.=.=.=.=.=.=.=.=.",
"=.=.=.=.=.=.=.=.=.=.=.=.=.=.=.=.=.o 7 0 R o o . . o . R R G R G R W ^ =.W / W ) =.=.i l i i s =.=.l =.=.D D Z m Z m M M M ] ] *.=.=.=.=.=.=.=.=.=.=.=.=.=.=.=.=.",
"=.=.=.=.=.=.=.=.=.=.=.=.=.=.=.=.=.7 7 8 w . . X G R G . R G G R Y Y Y W =.=.=.=.=.=.=.i i =.=.=.=.l =.a s D D D m m D D *.m X.] *.] =.=.=.=.=.=.=.=.=.=.=.=.=.=.",
"=.=.=.=.=.=.=.=.=.=.=.=.=.=.=.=.0 8 0 K $ o $ . X . R ! R G . W W W W W / ) ^ =.=.=.=.l ) l l =.l l l l D Z s D m m m D M ] D ] ] ] =.=.=.=.=.=.=.=.=.=.=.=.=.=.",
"=.=.=.=.=.=.=.=.=.=.=.=.=.=.=.=.8 0 0 7 o 0 0 $ . . . . W R W R R W i G ^ =.=.=.=.=.=.=.=.l i i s s c D s Z Z v m m D ] ] ] M ] *.&.&.=.=.=.=.=.=.=.=.=.=.=.=.=.",
"=.=.=.=.=.=.=.=.=.=.=.=.=.=.=.0 0 0 0 0 K =.R $ $ . . G R W R R W Y R Y ^ / =.=.=.=.=.=.=.i i i l s l l Z M Z m Z m D ] [ M D X.*.] ] =.=.=.=.=.=.=.=.=.=.=.=.=.",
"=.=.=.=.=.=.=.=.=.=.=.=.=.=.6 7 8 0 =.=.o 0 o G o G R G R G R G R W Y ) ) =.=.=.=.=.=.=.=.l l l l l s s f s f D f m ] D [ [ &.] &.] ] &.=.=.=.=.=.=.=.=.=.=.=.=.",
"=.=.=.=.=.=.=.=.=.=.=.=.=.=.0 0 8 0 0 =.o o o R o =.=.=.G G ! W ^ =./ Y =.=.=.=.=.=.=.=.=.=.i l f i f m f D m m D D ] [ [ D ] ] ] &.] %.=.=.=.=.=.=.=.=.=.=.=.=.",
"=.=.=.=.=.=.=.=.=.=.=.=.=.0 0 =.=.=.8 0 o   o G R =.=.=.=.^ ! ! =.=.=.=.=.=.=.=.=.=.=.=.=.=.=.z i f f f s m D m ] [ D ] D X.*.X.] %.X.&.&.=.=.=.=.=.=.=.=.=.=.=.",
"=.=.=.=.=.=.=.=.=.=.=.=.0 =.=.=.=.=.=.=.o o o o R =.=.=.=.=.W R W =.=.=.=.=.=.=.=.=.=.=.=.=.=.z f f f D Z D m m D ] D D =.=.=.D ] &.&.%.&.&.=.=.=.=.=.=.=.=.=.=.",
"=.=.=.=.=.=.=.=.=.=.=.=.8 8 =.=.=.=.=.=.R o R o R . G R R Y Y Y ! R =.=.=.=.=.=.=.=.=.=.=.=.=.=.Z s D s D Z D Z Z m M =.=.=.=.*.] @.%.%.&.%.] =.=.=.=.=.=.=.=.=.",
"=.=.=.=.=.=.=.=.=.=.=.8 =.7 =.=.=.=.8 R 0 R . R R =.=.=.Y R Y Y R W =.=.=.=.=.=.=.=.=.=.=.=.=.=.l D s s D =.D D D m X.=.=.=.@.*.@.+.] %.O.] ] &.=.=.=.=.=.=.=.=.",
"=.=.=.=.=.=.=.=.=.=.=.= 0 8 =.=.0 0 =.=.=.R R R o R R W R W W Y R =.=.=.=.=.=.=.=.=.=.=.=.=.=.=.=.l =.=.=.=.D D m D =.=.=.=.@.=...&.&.&.&.] %.%.=.=.=.=.=.=.=.=.",
"=.=.=.=.=.=.=.=.=.=.7 7 7 o o 7 =.=.=.=.=.R K R . G Y K W Y R W =.=.=.=.=.=.=.=.=.=.=.=.=.=.=.=.=.=.l Z D l Z D D *.=.=.=.D @.=.@.&.] %.%.O.&.&.=.=.=.=.=.=.=.=.",
"=.=.=.=.=.=.=.=.=.8 7 6 6 1 1 o =.=.=.=.=.o o o R R . ! ! R ! G =.=.=.=.=.=.=.=.=.=.=.=.=.=.=.=.=.=.=.=.D D D D M D X.=.@.] =.=.&.&.@.@.' %.] &.%.=.=.=.=.=.=.=.",
"=.=.=.=.=.=.=.=.7 8 =.7 7 1 1 1 o o 8 o K   R R G R ! Q W R R =.=.=.=.=.=.=.=.=.=.=.=.=.=.=.=.=.=.=.=.D Z D m m ] ] ] D *.] &.&.] @.&.&.' %.%.] %.@.=.=.=.=.=.=.",
"=.=.=.=.=.=.=.=.6 0 0 8 7 7 o o 8 o G o 7 G R R o R ! R G R =.=.=.=.=.=.=.=.=.=.=.=.=.=.=.=.=.=.=.=.=.=.=.D M M D D D *.D @.*.@.] =.=.&.%.@.%.] %.%.=.=.=.=.=.=.",
"=.=.=.=.=.=.=.= 6 8 7 8 o 1 8 o R o o o   o o R . . R =.G =.=.=.=.=.=.=.=.=.=.=.=.=.=.=.=.=.=.=.=.=.=.=.=.=.D M m *.[ ] [ *.@.&.] =.=.@.] %.%.O.%.%.&.=.=.=.=.=.",
"=.=.=.=.=.=.7 = = 1 1 1 1 1 1 o 0 1 o 0 o R =.=.=.R =.R ! =.=.=.=.=.=.=.=.=.=.=.=.=.=.=.=.=.=.=.=.=.=.=.=.D D D f D ] ] &.@.&.&.&.=.=.@.&.%.%.%.%.%.%.@.=.=.=.=.",
"=.=.=.=.=.6 = 1 = 1 1 6 1 1 7 X o   7 K =.=.=.=.=.R =.=.=.=.=.=.=.=.=.=.=.=.=.=.=.=.=.=.=.=.=.=.=.=.=.=.=.=.=.*.D m *.] @.@.&.] &.&.@.%.%.%.O.%.%.%.%.+.=.=.=.=.",
"=.=.=.=.=.> 7 * = 6 7 0 1 1 o 7 o 8 0 =.=.=.=.=.R =.=.=.=.=.=.=.=.=.=.=.=.=.=.=.=.=.=.=.=.=.=.=.=.=.=.=.=.=.=.D D M M ] D &.[ ] ] &.&.%.%.%.%.' %.%.%.+.&.=.=.=.",
"=.=.=.=.> ; ; 7 0 6 6 7 1 7 X w 8 K 0 K R =.=.R =.=.=.=.=.=.=.=.=.=.=.=.=.=.=.=.=.=.=.=.=.=.=.=.=.=.=.=.=.=.D ] D ] &.] ] ] *.] ] &.X.%.O.O.%.%.%.%.%.@.X.=.=.=.",
"=.=.=.=.6 = = 7 X = 7 1 7 6 o 8 =.=.=.8 R K R . =.=.=.=.=.=.=.=.=.=.=.=.=.=.=.=.=.=.=.=.=.=.=.=.=.=.=.=.=.=.=.D D *.] *.] ] ] ] ] ] X.%.] O.O.O.%.+.@.@.&.&.=.=.",
"=.=.=.6 6 6 ; 6 * 1 = 7 7 0 o 0 =.=.=.=.=.R R G K =.=.=.=.=.=.=.=.=.=.=.=.=.=.=.=.=.=.=.=.=.=.=.=.=.=.=.=.=.=.=.[ ] *.] *.] X.X.&.%.X.&.%.X.%.%.%.+.%.%.&.&.=.=.",
"=.=.; ; 6 6 > ; 7 1 7 8 1 0 =.0 =.=.=.K K =.R R =.R =.=.=.=.=.=.=.=.=.=.=.=.=.=.=.=.=.=.=.=.=.=.=.=.=.=.=.=.=.=.=.D ] *.M ] X.X.] ] ] &.%.%.&.X.@.+.&.&.%.&.X.&.",
"=.=.=.=.=.=.=.=.=.=.=.=.=.=.=.=.=.=.=.=.=.=.=.=.=.=.=.=.=.=.=.=.=.=.=.=.=.=.=.=.=.=.=.=.=.=.=.=.=.=.=.=.=.=.=.=.=.=.=.=.=.=.=.=.=.=.=.=.=.=.=.=.=.=.=.=.=.=.=.=.",
"=.=.=.=.=.=.=.=.=.=.=.=.=.=.=.=.=.=.=.=.=.=.=.=.=.=.=.=.=.=.=.=.=.=.=.=.=.=.=.=.=.=.=.=.=.=.=.=.=.=.=.=.=.=.=.=.=.=.=.=.=.=.=.=.=.=.=.=.=.=.=.=.=.=.=.=.=.=.=.=.",
"=.=.=.=.=.=.=.=.=.=.=.=.=.=.=.=.=.=.=.=.=.=.=.=.=.=.=.=.=.=.=.=.=.=.=.=.=.=.=.=.=.=.=.=.=.=.=.=.=.=.=.=.=.=.=.=.=.=.=.=.=.=.=.=.=.=.=.=.=.=.=.=.=.=.=.=.=.=.=.=."
};
